<?xml version="1.0" encoding="utf-8"?>
<!-- Generator: Adobe Illustrator 19.0.0, SVG Export Plug-In . SVG Version: 6.00 Build 0)  -->
<svg version="1.1" id="Layer_1" xmlns="http://www.w3.org/2000/svg" xmlns:xlink="http://www.w3.org/1999/xlink" x="0px" y="0px"
	 viewBox="0 0 130.2 130.2" style="enable-background:new 0 0 130.2 130.2;" xml:space="preserve">
<style type="text/css">
	.st0{fill:#FFFFFF;}
</style>
<g id="XMLID_27_">
	<path id="XMLID_59_" class="st0" d="M58.5,18.7v30.4c0,5.2-4.2,9.4-9.4,9.4H18.7c-5.2,0-9.4-4.2-9.4-9.4V18.7
		c0-5.2,4.2-9.4,9.4-9.4h30.4C54.3,9.3,58.5,13.5,58.5,18.7z"/>
	<path id="XMLID_28_" class="st0" d="M120.9,81.1v30.3c0,5.2-4.2,9.4-9.4,9.4H81.1c-5.2,0-9.4-4.2-9.4-9.4V81.1
		c0-5.2,4.2-9.4,9.4-9.4h30.3C116.7,71.7,120.9,75.9,120.9,81.1z"/>
	<path id="XMLID_61_" class="st0" d="M58.5,96.3c0,6.8-2.8,12.9-7.2,17.4c-4.5,4.5-10.6,7.2-17.4,7.2c-13.6,0-24.6-11-24.6-24.6
		c0-6.8,2.8-12.9,7.2-17.4c4.5-4.5,10.6-7.2,17.4-7.2c6.8,0,12.9,2.8,17.4,7.2C55.8,83.3,58.5,89.5,58.5,96.3z"/>
	<path id="XMLID_62_" class="st0" d="M120.9,33.9c0,6.8-2.8,12.9-7.2,17.4c-4.5,4.5-10.6,7.2-17.4,7.2c-13.6,0-24.6-11-24.6-24.6
		c0-6.8,2.8-12.9,7.2-17.4c4.5-4.5,10.6-7.2,17.4-7.2c6.8,0,12.9,2.8,17.4,7.2C118.1,21,120.9,27.1,120.9,33.9z"/>
</g>
</svg>
