<?xml version="1.0" encoding="utf-8"?>
<!-- Generator: Adobe Illustrator 19.0.0, SVG Export Plug-In . SVG Version: 6.00 Build 0)  -->
<svg version="1.1" id="Layer_1" xmlns="http://www.w3.org/2000/svg" xmlns:xlink="http://www.w3.org/1999/xlink" x="0px" y="0px"
	 viewBox="-122 423.4 833.3 234.6" style="enable-background:new -122 423.4 833.3 234.6;" xml:space="preserve">
<style type="text/css">
	.st0{fill:#63B3ED;}
	.st1{fill:#E2E8F0;}
</style>
<path id="XMLID_59_" class="st0" d="M-16.2,457.3v57.5c0,9.8-8,17.8-17.8,17.8h-57.5c-9.8,0-17.8-8-17.8-17.8v-57.5
	c0-9.8,8-17.8,17.8-17.8H-34C-24.2,439.5-16.2,447.5-16.2,457.3z"/>
<path id="XMLID_28_" class="st0" d="M93.2,566.8v57.5c0,9.8-8,17.8-17.8,17.8H17.9c-9.8,0-17.8-8-17.8-17.8v-57.5
	c0-9.8,8-17.8,17.8-17.8h57.5C85.2,548.9,93.2,556.9,93.2,566.8z"/>
<path id="XMLID_27_" class="st0" d="M-16.2,595.5c0,12.9-5.2,24.5-13.6,32.9c-8.4,8.4-20.1,13.6-32.9,13.6
	c-25.7,0-46.6-20.8-46.6-46.6c0-12.9,5.2-24.5,13.6-32.9s20.1-13.6,32.9-13.6c12.9,0,24.5,5.2,32.9,13.6
	C-21.4,571-16.2,582.6-16.2,595.5z"/>
<path id="XMLID_26_" class="st0" d="M93.2,486.1c0,12.9-5.2,24.5-13.6,32.9c-8.4,8.4-20.1,13.6-32.9,13.6
	C21,532.6,0.1,511.8,0.1,486c0-12.9,5.2-24.5,13.6-32.9s20.1-13.6,32.9-13.6c12.9,0,24.5,5.2,32.9,13.6
	C88,461.6,93.2,473.2,93.2,486.1z"/>
<path id="XMLID_24_" class="st1" d="M229.9,573.2v38H213c-31.1,0-46.7-15.5-46.7-46.5v-29.8h-14.1v-37.2h14.1v-27.4H211v27.4h18.5
	v37.2H211v30.6c0,2.7,0.6,4.6,1.9,5.8s3.4,1.8,6.3,1.8h10.7V573.2z"/>
<path id="XMLID_30_" class="st1" d="M357,510c7.3,8.7,11,20.5,11,35.4v65.8h-44.5V551c0-5.4-1.4-9.6-4.3-12.8s-6.7-4.7-11.6-4.7
	c-5,0-8.9,1.6-11.7,4.7c-2.8,3.2-4.2,7.4-4.2,12.8v60.2H247v-149h44.7v52.7c3.5-5.4,8.2-9.7,14-13.1c5.8-3.4,12.8-5,20.8-5
	C339.5,496.9,349.7,501.3,357,510z"/>
<path id="XMLID_32_" class="st1" d="M448.7,502.8c6.6-4,13.4-5.9,20.5-5.9v47.7h-12.7c-8.5,0-14.7,1.5-18.6,4.4
	c-4,3-5.9,8.2-5.9,15.7v46.5h-44.7V497.7H432v20.9C436.6,512.1,442.1,506.8,448.7,502.8z"/>
<path id="XMLID_34_" class="st1" d="M481.4,523.4c4.1-8.8,9.7-15.5,16.8-20.1c7.1-4.6,15.1-6.9,24-6.9c7.4,0,13.7,1.5,19,4.5
	s9.4,7.1,12.2,12.4v-51h44.7v149h-44.7v-15.5c-2.8,5.2-6.9,9.4-12.2,12.4s-11.6,4.5-19,4.5c-8.9,0-16.8-2.3-24-6.9
	c-7.1-4.6-12.7-11.3-16.8-20.1c-4.1-8.8-6.1-19.2-6.1-31.1C475.3,542.5,477.3,532.2,481.4,523.4z M549,540.4c-3.1-3.4-7-5-11.9-5
	c-4.8,0-8.8,1.7-11.9,5c-3.1,3.4-4.6,8.1-4.6,14.1s1.5,10.7,4.6,14.1c3.1,3.4,7,5,11.9,5c4.8,0,8.8-1.7,11.9-5
	c3.1-3.4,4.6-8.1,4.6-14.1C553.6,548.4,552,543.7,549,540.4z"/>
<path id="XMLID_37_" class="st1" d="M679.6,502.8c6.6-4,13.4-5.9,20.5-5.9v47.7h-12.7c-8.5,0-14.7,1.5-18.6,4.4
	c-4,3-5.9,8.2-5.9,15.7v46.5h-44.7V497.7h44.7v20.9C667.5,512.1,673,506.8,679.6,502.8z"/>
</svg>
