<?xml version="1.0" encoding="utf-8"?>
<!-- Generator: Adobe Illustrator 19.0.0, SVG Export Plug-In . SVG Version: 6.00 Build 0)  -->
<svg version="1.1" id="Layer_1" xmlns="http://www.w3.org/2000/svg" xmlns:xlink="http://www.w3.org/1999/xlink" x="0px" y="0px"
	 viewBox="-122 423.4 833.3 234.6" style="enable-background:new -122 423.4 833.3 234.6;" xml:space="preserve">
<style type="text/css">
	.st0{fill:#63B3ED;}
	.st1{fill:#E2E8F0;}
	.st2{fill:url(#XMLID_9_);}
</style>
<path id="XMLID_59_" class="st0" d="M-138.2,880.7v57.5c0,9.8-8,17.8-17.8,17.8h-57.5c-9.8,0-17.8-8-17.8-17.8v-57.5
	c0-9.8,8-17.8,17.8-17.8h57.5C-146.2,862.9-138.2,870.9-138.2,880.7z"/>
<path id="XMLID_28_" class="st0" d="M-28.8,990.2v57.5c0,9.8-8,17.8-17.8,17.8h-57.5c-9.8,0-17.8-8-17.8-17.8v-57.5
	c0-9.8,8-17.8,17.8-17.8h57.5C-36.8,972.3-28.8,980.3-28.8,990.2z"/>
<path id="XMLID_27_" class="st0" d="M-138.2,1018.9c0,12.9-5.2,24.5-13.6,32.9c-8.4,8.4-20.1,13.6-32.9,13.6
	c-25.7,0-46.6-20.8-46.6-46.6c0-12.9,5.2-24.5,13.6-32.9c8.4-8.4,20.1-13.6,32.9-13.6c12.9,0,24.5,5.2,32.9,13.6
	C-143.4,994.4-138.2,1006-138.2,1018.9z"/>
<path id="XMLID_26_" class="st0" d="M-28.8,909.5c0,12.9-5.2,24.5-13.6,32.9S-62.5,956-75.3,956c-25.7,0-46.6-20.8-46.6-46.6
	c0-12.9,5.2-24.5,13.6-32.9c8.4-8.4,20.1-13.6,32.9-13.6c12.9,0,24.5,5.2,32.9,13.6C-34,885-28.8,896.6-28.8,909.5z"/>
<path id="XMLID_24_" class="st1" d="M107.9,996.6v38H91c-31.1,0-46.7-15.5-46.7-46.5v-29.8H30.2v-37.2h14.1v-27.4H89v27.4h18.5v37.2
	H89v30.6c0,2.7,0.6,4.6,1.9,5.8s3.4,1.8,6.3,1.8h10.7V996.6z"/>
<path id="XMLID_30_" class="st1" d="M235,933.4c7.3,8.7,11,20.5,11,35.4v65.8h-44.5v-60.2c0-5.4-1.4-9.6-4.3-12.8s-6.7-4.7-11.6-4.7
	c-5,0-8.9,1.6-11.7,4.7c-2.8,3.2-4.2,7.4-4.2,12.8v60.2H125v-149h44.7v52.7c3.5-5.4,8.2-9.7,14-13.1c5.8-3.4,12.8-5,20.8-5
	C217.5,920.3,227.7,924.7,235,933.4z"/>
<path id="XMLID_32_" class="st1" d="M326.7,926.2c6.6-4,13.4-5.9,20.5-5.9V968h-12.7c-8.5,0-14.7,1.5-18.6,4.4
	c-4,3-5.9,8.2-5.9,15.7v46.5h-44.7V921.1H310V942C314.6,935.5,320.1,930.2,326.7,926.2z"/>
<path id="XMLID_34_" class="st1" d="M359.4,946.8c4.1-8.8,9.7-15.5,16.8-20.1c7.1-4.6,15.1-6.9,24-6.9c7.4,0,13.7,1.5,19,4.5
	s9.4,7.1,12.2,12.4v-51h44.7v149h-44.7v-15.5c-2.8,5.2-6.9,9.4-12.2,12.4s-11.6,4.5-19,4.5c-8.9,0-16.8-2.3-24-6.9
	c-7.1-4.6-12.7-11.3-16.8-20.1c-4.1-8.8-6.1-19.2-6.1-31.1C353.3,965.9,355.3,955.6,359.4,946.8z M427,963.8c-3.1-3.4-7-5-11.9-5
	c-4.8,0-8.8,1.7-11.9,5c-3.1,3.4-4.6,8.1-4.6,14.1s1.5,10.7,4.6,14.1c3.1,3.4,7,5,11.9,5c4.8,0,8.8-1.7,11.9-5
	c3.1-3.4,4.6-8.1,4.6-14.1C431.6,971.8,430,967.1,427,963.8z"/>
<path id="XMLID_37_" class="st1" d="M557.6,926.2c6.6-4,13.4-5.9,20.5-5.9V968h-12.7c-8.5,0-14.7,1.5-18.6,4.4
	c-4,3-5.9,8.2-5.9,15.7v46.5h-44.7V921.1h44.7V942C545.5,935.5,551,930.2,557.6,926.2z"/>
<path id="XMLID_23_" class="st1" d="M257,563.8V593h-13c-23.9,0-35.8-11.9-35.8-35.7v-22.9h-10.8v-28.6h10.8v-21h34.3v21h14.2v28.6
	h-14.2v23.5c0,2.1,0.5,3.6,1.5,4.5c1,0.9,2.6,1.4,4.9,1.4H257z"/>
<path id="XMLID_7_" class="st1" d="M354.6,515.3c5.6,6.7,8.4,15.8,8.4,27.2V593h-34.1v-46.2c0-4.1-1.1-7.4-3.3-9.8
	c-2.2-2.4-5.2-3.6-8.9-3.6c-3.8,0-6.8,1.2-9,3.6c-2.2,2.4-3.2,5.7-3.2,9.8V593h-34.3V478.7h34.3v40.5c2.7-4.1,6.3-7.5,10.7-10
	c4.5-2.6,9.8-3.9,16-3.9C341.1,505.3,348.9,508.6,354.6,515.3z"/>
<path id="XMLID_6_" class="st1" d="M424.9,509.8c5-3,10.3-4.6,15.8-4.6v36.6H431c-6.5,0-11.3,1.1-14.3,3.4c-3,2.3-4.6,6.3-4.6,12.1
	V593h-34.3v-87.1h34.3v16.1C415.6,516.9,419.9,512.9,424.9,509.8z"/>
<path id="XMLID_2_" class="st1" d="M450,525.6c3.1-6.7,7.4-11.9,12.9-15.4c5.5-3.6,11.6-5.3,18.4-5.3c5.7,0,10.5,1.2,14.6,3.5
	c4.1,2.3,7.2,5.5,9.3,9.5v-39.1h34.3V593h-34.3v-11.9c-2.2,4-5.3,7.2-9.3,9.5c-4.1,2.3-8.9,3.5-14.6,3.5c-6.8,0-12.9-1.8-18.4-5.3
	c-5.5-3.6-9.8-8.7-12.9-15.4c-3.1-6.7-4.7-14.7-4.7-23.9C445.3,540.3,446.9,532.3,450,525.6z M501.9,538.6c-2.4-2.6-5.4-3.9-9.1-3.9
	c-3.7,0-6.7,1.3-9.1,3.9c-2.4,2.6-3.6,6.2-3.6,10.8s1.2,8.2,3.6,10.8c2.4,2.6,5.4,3.9,9.1,3.9c3.7,0,6.7-1.3,9.1-3.9
	c2.4-2.6,3.6-6.2,3.6-10.8S504.2,541.2,501.9,538.6z"/>
<path id="XMLID_1_" class="st1" d="M602.1,509.8c5-3,10.3-4.6,15.8-4.6v36.6h-9.7c-6.5,0-11.3,1.1-14.3,3.4c-3,2.3-4.6,6.3-4.6,12.1
	V593H555v-87.1h34.3v16.1C592.8,516.9,597.1,512.9,602.1,509.8z"/>
<g id="XMLID_60_">
	<linearGradient id="XMLID_9_" gradientUnits="userSpaceOnUse" x1="-38.8305" y1="485.124" x2="138.748" y2="587.649">
		<stop  offset="0" style="stop-color:#6366F1"/>
		<stop  offset="0.3758" style="stop-color:#524DDC"/>
		<stop  offset="0.7243" style="stop-color:#473DCF"/>
		<stop  offset="1" style="stop-color:#4338CA"/>
	</linearGradient>
	<path id="XMLID_40_" class="st2" d="M152.5,536.4c0,28.3-11.5,53.9-30,72.5c-18.6,18.6-44.2,30-72.5,30
		c-56.6,0-102.5-45.9-102.5-102.5c0-28.3,11.5-53.9,30-72.5c18.6-18.6,44.2-30,72.5-30c28.3,0,53.9,11.5,72.5,30
		C141,482.5,152.5,508.1,152.5,536.4z"/>
	<g id="XMLID_3_">
		
			<image style="overflow:visible;opacity:0.15;" width="137" height="137" xlink:href="2ECE1AB8.png"  transform="matrix(1 0 0 1 -15.5305 471)">
		</image>
		<g>
			<g>
				<path id="XMLID_76_" class="st1" d="M45.7,492.5v30.2c0,5.2-4.2,9.4-9.4,9.4H6.1c-5.2,0-9.4-4.2-9.4-9.4v-30.2
					c0-5.2,4.2-9.4,9.4-9.4h30.2C41.5,483.2,45.7,487.4,45.7,492.5z"/>
				<path id="XMLID_75_" class="st1" d="M103.2,550v30.2c0,5.2-4.2,9.4-9.4,9.4H63.6c-5.2,0-9.4-4.2-9.4-9.4V550
					c0-5.2,4.2-9.4,9.4-9.4h30.2C99,540.7,103.2,544.9,103.2,550z"/>
				<path id="XMLID_74_" class="st1" d="M45.7,565.1c0,6.8-2.7,12.9-7.2,17.3c-4.4,4.4-10.5,7.2-17.3,7.2c-13.5,0-24.5-11-24.5-24.5
					c0-6.8,2.7-12.9,7.2-17.3c4.4-4.4,10.5-7.2,17.3-7.2c6.8,0,12.9,2.7,17.3,7.2C42.9,552.3,45.7,558.4,45.7,565.1z"/>
				<path id="XMLID_73_" class="st1" d="M103.2,507.6c0,6.8-2.7,12.9-7.2,17.3c-4.4,4.4-10.5,7.2-17.3,7.2
					c-13.5,0-24.5-11-24.5-24.5c0-6.8,2.7-12.9,7.2-17.3c4.4-4.4,10.5-7.2,17.3-7.2c6.8,0,12.9,2.7,17.3,7.2
					C100.4,494.8,103.2,500.9,103.2,507.6z"/>
			</g>
		</g>
	</g>
</g>
</svg>
