<?xml version="1.0" encoding="utf-8"?>
<!-- Generator: Adobe Illustrator 19.0.0, SVG Export Plug-In . SVG Version: 6.00 Build 0)  -->
<svg version="1.1" id="Layer_1" xmlns="http://www.w3.org/2000/svg" xmlns:xlink="http://www.w3.org/1999/xlink" x="0px" y="0px"
	 viewBox="0 0 210.7 210.7" style="enable-background:new 0 0 210.7 210.7;" xml:space="preserve">
<style type="text/css">
	.st0{fill:url(#XMLID_29_);}
	.st1{fill:#FFFFFF;}
</style>
<g id="XMLID_73_">
	<linearGradient id="XMLID_29_" gradientUnits="userSpaceOnUse" x1="16.5436" y1="54.0717" x2="194.1221" y2="156.5967">
		<stop  offset="0" style="stop-color:#6366F1"/>
		<stop  offset="0.3758" style="stop-color:#524DDC"/>
		<stop  offset="0.7243" style="stop-color:#473DCF"/>
		<stop  offset="1" style="stop-color:#4338CA"/>
	</linearGradient>
	<path id="XMLID_79_" class="st0" d="M207.8,105.3c0,28.3-11.5,53.9-30,72.5c-18.6,18.6-44.2,30-72.5,30
		c-56.6,0-102.5-45.9-102.5-102.5c0-28.3,11.5-53.9,30-72.5c18.6-18.6,44.2-30,72.5-30c28.3,0,53.9,11.5,72.5,30
		C196.4,51.4,207.8,77,207.8,105.3z"/>
	<g id="XMLID_74_">
		<path id="XMLID_78_" class="st1" d="M99.5,59.7v30.4c0,5.2-4.2,9.4-9.4,9.4H59.7c-5.2,0-9.4-4.2-9.4-9.4V59.7
			c0-5.2,4.2-9.4,9.4-9.4h30.4C95.2,50.3,99.5,54.5,99.5,59.7z"/>
		<path id="XMLID_77_" class="st1" d="M161.8,122.1v30.3c0,5.2-4.2,9.4-9.4,9.4h-30.3c-5.2,0-9.4-4.2-9.4-9.4v-30.3
			c0-5.2,4.2-9.4,9.4-9.4h30.3C157.6,112.6,161.8,116.9,161.8,122.1z"/>
		<path id="XMLID_76_" class="st1" d="M99.5,137.2c0,6.8-2.8,12.9-7.2,17.4c-4.5,4.5-10.6,7.2-17.4,7.2c-13.6,0-24.6-11-24.6-24.6
			c0-6.8,2.8-12.9,7.2-17.4c4.5-4.5,10.6-7.2,17.4-7.2c6.8,0,12.9,2.8,17.4,7.2C96.7,124.3,99.5,130.4,99.5,137.2z"/>
		<path id="XMLID_75_" class="st1" d="M161.8,74.9c0,6.8-2.8,12.9-7.2,17.4c-4.5,4.5-10.6,7.2-17.4,7.2c-13.6,0-24.6-11-24.6-24.6
			c0-6.8,2.8-12.9,7.2-17.4c4.5-4.5,10.6-7.2,17.4-7.2c6.8,0,12.9,2.8,17.4,7.2C159.1,61.9,161.8,68.1,161.8,74.9z"/>
	</g>
</g>
</svg>
